<?xml version="1.0" encoding="UTF-8" standalone="no"?><svg xmlns="http://www.w3.org/2000/svg" xmlns:xlink="http://www.w3.org/1999/xlink" contentStyleType="text/css" height="541px" preserveAspectRatio="none" style="width:592px;height:541px;background:#FFFFFF;" version="1.1" viewBox="0 0 592 541" width="592px" zoomAndPan="magnify"><defs/><g><!--MD5=[43256c504d4873097c2201205cc9ed34]
class utilisateur--><g id="elem_utilisateur"><rect codeLine="2" fill="#F1F1F1" height="163.418" id="utilisateur" rx="2.5" ry="2.5" style="stroke:#181818;stroke-width:0.5;" width="273" x="7" y="181"/><ellipse cx="104.75" cy="197" fill="#ADD1B2" rx="11" ry="11" style="stroke:#181818;stroke-width:1.0;"/><path d="M108.3643,203.5 L100.6445,203.5 L100.6445,191.1069 L108.3643,191.1069 L108.3643,193.2651 L103.0933,193.2651 L103.0933,195.938 L107.8662,195.938 L107.8662,198.0962 L103.0933,198.0962 L103.0933,201.3418 L108.3643,201.3418 Z " fill="#000000"/><text fill="#000000" font-family="sans-serif" font-size="14" lengthAdjust="spacing" textLength="69" x="125.25" y="202.291">utilisateur</text><line style="stroke:#181818;stroke-width:0.5;" x1="8" x2="279" y1="213" y2="213"/><ellipse cx="18" cy="226.7441" fill="#000000" rx="3" ry="3" style="stroke:#000000;stroke-width:1.0;"/><text fill="#000000" font-family="sans-serif" font-size="14" lengthAdjust="spacing" textLength="221" x="27" y="230.5352">utilisateurId : UNIQUEIDENTIFIER</text><line style="stroke:#181818;stroke-width:1.0;" x1="8" x2="279" y1="237.4883" y2="237.4883"/><ellipse cx="18" cy="251.2324" fill="#000000" rx="3" ry="3" style="stroke:#000000;stroke-width:1.0;"/><text fill="#000000" font-family="sans-serif" font-size="14" lengthAdjust="spacing" textLength="138" x="27" y="255.0234">nom : VARCHAR(30)</text><ellipse cx="18" cy="267.7207" fill="#000000" rx="3" ry="3" style="stroke:#000000;stroke-width:1.0;"/><text fill="#000000" font-family="sans-serif" font-size="14" lengthAdjust="spacing" textLength="161" x="27" y="271.5117">prenom : VARCHAR(30)</text><ellipse cx="18" cy="284.209" fill="#000000" rx="3" ry="3" style="stroke:#000000;stroke-width:1.0;"/><text fill="#000000" font-family="sans-serif" font-size="14" lengthAdjust="spacing" textLength="185" x="27" y="288">dateInscription : DATETIME</text><ellipse cx="18" cy="300.6973" fill="#000000" rx="3" ry="3" style="stroke:#000000;stroke-width:1.0;"/><text fill="#000000" font-family="sans-serif" font-size="14" lengthAdjust="spacing" textLength="147" x="27" y="304.4883">dateNaissance : DATE</text><ellipse cx="18" cy="317.1855" fill="#000000" rx="3" ry="3" style="stroke:#000000;stroke-width:1.0;"/><text fill="#000000" font-family="sans-serif" font-size="14" lengthAdjust="spacing" textLength="84" x="27" y="320.9766">age : calculé</text><text fill="#000000" font-family="sans-serif" font-size="14" lengthAdjust="spacing" textLength="247" x="27" y="337.4648">dateDerniereConnexion : DATETIME</text></g><!--MD5=[18d222b23d16918b2e30b2a06d1af479]
class createur--><g id="elem_createur"><rect codeLine="13" fill="#F1F1F1" height="113.9531" id="createur" rx="2.5" ry="2.5" style="stroke:#181818;stroke-width:0.5;" width="282" x="155.5" y="7"/><ellipse cx="263.75" cy="23" fill="#ADD1B2" rx="11" ry="11" style="stroke:#181818;stroke-width:1.0;"/><path d="M267.3643,29.5 L259.6445,29.5 L259.6445,17.1069 L267.3643,17.1069 L267.3643,19.2651 L262.0933,19.2651 L262.0933,21.938 L266.8662,21.938 L266.8662,24.0962 L262.0933,24.0962 L262.0933,27.3418 L267.3643,27.3418 Z " fill="#000000"/><text fill="#000000" font-family="sans-serif" font-size="14" lengthAdjust="spacing" textLength="57" x="284.25" y="28.291">createur</text><line style="stroke:#181818;stroke-width:0.5;" x1="156.5" x2="436.5" y1="39" y2="39"/><ellipse cx="166.5" cy="52.7441" fill="#000000" rx="3" ry="3" style="stroke:#000000;stroke-width:1.0;"/><text fill="#000000" font-family="sans-serif" font-size="14" lengthAdjust="spacing" textLength="209" x="175.5" y="56.5352">createurId : UNIQUEIDENTIFIER</text><line style="stroke:#181818;stroke-width:1.0;" x1="156.5" x2="436.5" y1="63.4883" y2="63.4883"/><ellipse cx="166.5" cy="77.2324" fill="#000000" rx="3" ry="3" style="stroke:#000000;stroke-width:1.0;"/><text fill="#000000" font-family="sans-serif" font-size="14" lengthAdjust="spacing" textLength="220" x="175.5" y="81.0234">nomCommercial : VARCHAR(30)</text><ellipse cx="166.5" cy="93.7207" fill="#000000" rx="3" ry="3" style="stroke:#000000;stroke-width:1.0;"/><text fill="#000000" font-family="sans-serif" font-size="14" lengthAdjust="spacing" textLength="256" x="175.5" y="97.5117">utilisateurId : UNIQUEIDENTIFIER «FK»</text><ellipse cx="166.5" cy="110.209" fill="#000000" rx="3" ry="3" style="stroke:#000000;stroke-width:1.0;"/><text fill="#000000" font-family="sans-serif" font-size="14" lengthAdjust="spacing" textLength="185" x="175.5" y="114">dateInscription : DATETIME</text></g><!--MD5=[60838059855595057adeadf290302a4f]
class chaine--><g id="elem_chaine"><rect codeLine="21" fill="#F1F1F1" height="146.9297" id="chaine" rx="2.5" ry="2.5" style="stroke:#181818;stroke-width:0.5;" width="270" x="315.5" y="189"/><ellipse cx="423.75" cy="205" fill="#ADD1B2" rx="11" ry="11" style="stroke:#181818;stroke-width:1.0;"/><path d="M427.3643,211.5 L419.6445,211.5 L419.6445,199.1069 L427.3643,199.1069 L427.3643,201.2651 L422.0933,201.2651 L422.0933,203.938 L426.8662,203.938 L426.8662,206.0962 L422.0933,206.0962 L422.0933,209.3418 L427.3643,209.3418 Z " fill="#000000"/><text fill="#000000" font-family="sans-serif" font-size="14" lengthAdjust="spacing" textLength="45" x="444.25" y="210.291">chaine</text><line style="stroke:#181818;stroke-width:0.5;" x1="316.5" x2="584.5" y1="221" y2="221"/><ellipse cx="326.5" cy="234.7441" fill="#000000" rx="3" ry="3" style="stroke:#000000;stroke-width:1.0;"/><text fill="#000000" font-family="sans-serif" font-size="14" lengthAdjust="spacing" textLength="197" x="335.5" y="238.5352">chaineId : UNIQUEIDENTIFIER</text><line style="stroke:#181818;stroke-width:1.0;" x1="316.5" x2="584.5" y1="245.4883" y2="245.4883"/><ellipse cx="326.5" cy="259.2324" fill="#000000" rx="3" ry="3" style="stroke:#000000;stroke-width:1.0;"/><text fill="#000000" font-family="sans-serif" font-size="14" lengthAdjust="spacing" textLength="138" x="335.5" y="263.0234">nom : VARCHAR(30)</text><ellipse cx="326.5" cy="275.7207" fill="#000000" rx="3" ry="3" style="stroke:#000000;stroke-width:1.0;"/><text fill="#000000" font-family="sans-serif" font-size="14" lengthAdjust="spacing" textLength="148" x="335.5" y="279.5117">URI : VARCHAR(1024)</text><ellipse cx="326.5" cy="292.209" fill="#000000" rx="3" ry="3" style="stroke:#000000;stroke-width:1.0;"/><text fill="#000000" font-family="sans-serif" font-size="14" lengthAdjust="spacing" textLength="202" x="335.5" y="296">description : VARCHAR(1024)</text><ellipse cx="326.5" cy="308.6973" fill="#000000" rx="3" ry="3" style="stroke:#000000;stroke-width:1.0;"/><text fill="#000000" font-family="sans-serif" font-size="14" lengthAdjust="spacing" textLength="244" x="335.5" y="312.4883">createurId : UNIQUEIDENTIFIER «FK»</text><ellipse cx="326.5" cy="325.1855" fill="#000000" rx="3" ry="3" style="stroke:#000000;stroke-width:1.0;"/><text fill="#000000" font-family="sans-serif" font-size="14" lengthAdjust="spacing" textLength="171" x="335.5" y="328.9766">dateCreation : DATETIME</text></g><!--MD5=[a68f21b836a400f2f1dc8b705bd402bc]
class don--><g id="elem_don"><rect codeLine="31" fill="#F1F1F1" height="130.4414" id="don" rx="2.5" ry="2.5" style="stroke:#181818;stroke-width:0.5;" width="282" x="155.5" y="404"/><ellipse cx="278.75" cy="420" fill="#ADD1B2" rx="11" ry="11" style="stroke:#181818;stroke-width:1.0;"/><path d="M282.3643,426.5 L274.6445,426.5 L274.6445,414.1069 L282.3643,414.1069 L282.3643,416.2651 L277.0933,416.2651 L277.0933,418.938 L281.8662,418.938 L281.8662,421.0962 L277.0933,421.0962 L277.0933,424.3418 L282.3643,424.3418 Z " fill="#000000"/><text fill="#000000" font-family="sans-serif" font-size="14" lengthAdjust="spacing" textLength="27" x="299.25" y="425.291">don</text><line style="stroke:#181818;stroke-width:0.5;" x1="156.5" x2="436.5" y1="436" y2="436"/><ellipse cx="166.5" cy="449.7441" fill="#000000" rx="3" ry="3" style="stroke:#000000;stroke-width:1.0;"/><text fill="#000000" font-family="sans-serif" font-size="14" lengthAdjust="spacing" textLength="179" x="175.5" y="453.5352">donId : UNIQUEIDENTIFIER</text><line style="stroke:#181818;stroke-width:1.0;" x1="156.5" x2="436.5" y1="460.4883" y2="460.4883"/><ellipse cx="166.5" cy="474.2324" fill="#000000" rx="3" ry="3" style="stroke:#000000;stroke-width:1.0;"/><text fill="#000000" font-family="sans-serif" font-size="14" lengthAdjust="spacing" textLength="256" x="175.5" y="478.0234">utilisateurId : UNIQUEIDENTIFIER «FK»</text><ellipse cx="166.5" cy="490.7207" fill="#000000" rx="3" ry="3" style="stroke:#000000;stroke-width:1.0;"/><text fill="#000000" font-family="sans-serif" font-size="14" lengthAdjust="spacing" textLength="232" x="175.5" y="494.5117">chaineId : UNIQUEIDENTIFIER «FK»</text><ellipse cx="166.5" cy="507.209" fill="#000000" rx="3" ry="3" style="stroke:#000000;stroke-width:1.0;"/><text fill="#000000" font-family="sans-serif" font-size="14" lengthAdjust="spacing" textLength="112" x="175.5" y="511">date : DATETIME</text><ellipse cx="166.5" cy="523.6973" fill="#000000" rx="3" ry="3" style="stroke:#000000;stroke-width:1.0;"/><text fill="#000000" font-family="sans-serif" font-size="14" lengthAdjust="spacing" textLength="120" x="175.5" y="527.4883">montant : MONEY</text></g><!--MD5=[f97ebbe9567929fa3650c6bbdf08c36c]
link utilisateur to don--><g id="link_utilisateur_don"><path codeLine="40" d="M208.66,350.6 C220.39,366.27 232.47,382.42 243.79,397.55 " fill="none" id="utilisateur-don" style="stroke:#181818;stroke-width:1.0;"/><line style="stroke:#181818;stroke-width:1.0;" x1="243.806" x2="253.399" y1="397.548" y2="400.372"/><line style="stroke:#181818;stroke-width:1.0;" x1="243.806" x2="243.781" y1="397.548" y2="407.548"/><line style="stroke:#181818;stroke-width:1.0;" x1="243.806" x2="248.59" y1="397.548" y2="403.96"/><ellipse cx="240.218" cy="392.739" fill="none" rx="4" ry="4" style="stroke:#181818;stroke-width:1.0;"/><line style="stroke:#181818;stroke-width:1.0;" x1="202.942" x2="209.3489" y1="349.6289" y2="344.838"/><line style="stroke:#181818;stroke-width:1.0;" x1="204.7386" x2="211.1454" y1="352.0314" y2="347.2406"/><line style="stroke:#181818;stroke-width:1.0;" x1="208.5408" x2="203.75" y1="350.4369" y2="344.03"/></g><!--MD5=[cf2f6805d20911c1c7a67076b6edad10]
link chaine to don--><g id="link_chaine_don"><path codeLine="41" d="M390.87,342.69 C377.32,360.68 363.01,379.68 349.75,397.29 " fill="none" id="chaine-don" style="stroke:#181818;stroke-width:1.0;"/><line style="stroke:#181818;stroke-width:1.0;" x1="349.726" x2="349.701" y1="397.332" y2="407.332"/><line style="stroke:#181818;stroke-width:1.0;" x1="349.726" x2="340.119" y1="397.332" y2="400.108"/><line style="stroke:#181818;stroke-width:1.0;" x1="349.726" x2="344.91" y1="397.332" y2="403.72"/><ellipse cx="353.338" cy="392.541" fill="none" rx="4" ry="4" style="stroke:#181818;stroke-width:1.0;"/><line style="stroke:#181818;stroke-width:1.0;" x1="390.1689" x2="396.562" y1="336.962" y2="341.7711"/><line style="stroke:#181818;stroke-width:1.0;" x1="388.3654" x2="394.7586" y1="339.3594" y2="344.1686"/><line style="stroke:#181818;stroke-width:1.0;" x1="390.9609" x2="395.77" y1="342.5631" y2="336.17"/></g><!--MD5=[b516e595a2c2bacda291a774d6b805af]
link createur to chaine--><g id="link_createur_chaine"><path codeLine="42" d="M345.54,127.57 C359.14,144.93 374.1,164.01 388.35,182.2 " fill="none" id="createur-chaine" style="stroke:#181818;stroke-width:1.0;"/><line style="stroke:#181818;stroke-width:1.0;" x1="388.6218" x2="398.2805" y1="182.556" y2="185.1464"/><line style="stroke:#181818;stroke-width:1.0;" x1="388.6218" x2="388.8395" y1="182.556" y2="192.5536"/><line style="stroke:#181818;stroke-width:1.0;" x1="388.6218" x2="393.56" y1="182.556" y2="188.85"/><ellipse cx="384.9182" cy="177.8355" fill="none" rx="4" ry="4" style="stroke:#181818;stroke-width:1.0;"/><line style="stroke:#181818;stroke-width:1.0;" x1="339.7404" x2="346.0359" y1="126.6659" y2="121.7296"/><line style="stroke:#181818;stroke-width:1.0;" x1="341.5915" x2="347.887" y1="129.0267" y2="124.0904"/><line style="stroke:#181818;stroke-width:1.0;" x1="345.3563" x2="340.42" y1="127.3455" y2="121.05"/></g><!--MD5=[0024bccd09e18c67e7ed6d8940f37a0a]
link createur to utilisateur--><g id="link_createur_utilisateur"><path codeLine="43" d="M247.69,127.68 C236.18,142.47 223.7,158.5 211.51,174.15 " fill="none" id="createur-utilisateur" style="stroke:#181818;stroke-width:1.0;"/><line style="stroke:#181818;stroke-width:1.0;" x1="211.9234" x2="205.6101" y1="180.1301" y2="175.2166"/><line style="stroke:#181818;stroke-width:1.0;" x1="213.766" x2="207.4527" y1="177.7626" y2="172.8491"/><line style="stroke:#181818;stroke-width:1.0;" x1="211.2235" x2="206.31" y1="174.5167" y2="180.83"/><line style="stroke:#181818;stroke-width:1.0;" x1="246.1039" x2="252.86" y1="129.7308" y2="121.05"/><ellipse cx="246.1039" cy="129.7308" fill="none" rx="4" ry="4" style="stroke:#181818;stroke-width:1.0;"/><line style="stroke:#181818;stroke-width:1.0;" x1="247.2466" x2="253.5599" y1="121.7499" y2="126.6634"/></g><!--MD5=[abd59280a26efcd067d8f73d7a7370a2]
@startuml ERD_Physique

entity utilisateur {
    * utilisateurId : UNIQUEIDENTIFIER
    - -
    * nom : VARCHAR(30)
    * prenom : VARCHAR(30)
    * dateInscription : DATETIME
    * dateNaissance : DATE
    * age : calculé
    dateDerniereConnexion : DATETIME
}

entity createur {
    * createurId : UNIQUEIDENTIFIER
    - -
    * nomCommercial : VARCHAR(30)
    * utilisateurId : UNIQUEIDENTIFIER <<FK>>
    * dateInscription : DATETIME
}

entity chaine {
    * chaineId : UNIQUEIDENTIFIER
    - -
    * nom : VARCHAR(30)
    * URI : VARCHAR(1024)
    * description : VARCHAR(1024)
    * createurId : UNIQUEIDENTIFIER <<FK>>
    * dateCreation : DATETIME
}

entity don {
    * donId : UNIQUEIDENTIFIER
    - -
    * utilisateurId : UNIQUEIDENTIFIER <<FK>>
    * chaineId : UNIQUEIDENTIFIER <<FK>>
    * date : DATETIME
    * montant : MONEY
}

utilisateur ||- -o{ don
chaine ||- -o{ don
createur ||- -o{ chaine
createur |o- -|| utilisateur

@enduml

PlantUML version 1.2022.7(Mon Aug 22 13:01:30 EDT 2022)
(GPL source distribution)
Java Runtime: OpenJDK Runtime Environment
JVM: OpenJDK 64-Bit Server VM
Default Encoding: UTF-8
Language: fr
Country: CA
--></g></svg>