<?xml version="1.0" encoding="UTF-8" standalone="no"?><svg xmlns="http://www.w3.org/2000/svg" xmlns:xlink="http://www.w3.org/1999/xlink" contentStyleType="text/css" height="312px" preserveAspectRatio="none" style="width:243px;height:312px;background:#FFFFFF;" version="1.1" viewBox="0 0 243 312" width="243px" zoomAndPan="magnify"><defs/><g><!--MD5=[43256c504d4873097c2201205cc9ed34]
class utilisateur--><g id="elem_utilisateur"><rect codeLine="2" fill="#F1F1F1" height="48" id="utilisateur" rx="2.5" ry="2.5" style="stroke:#181818;stroke-width:0.5;" width="101" x="7" y="132"/><ellipse cx="22" cy="148" fill="#ADD1B2" rx="11" ry="11" style="stroke:#181818;stroke-width:1.0;"/><path d="M25.6143,154.5 L17.8945,154.5 L17.8945,142.1069 L25.6143,142.1069 L25.6143,144.2651 L20.3433,144.2651 L20.3433,146.938 L25.1162,146.938 L25.1162,149.0962 L20.3433,149.0962 L20.3433,152.3418 L25.6143,152.3418 Z " fill="#000000"/><text fill="#000000" font-family="sans-serif" font-size="14" lengthAdjust="spacing" textLength="69" x="36" y="153.291">utilisateur</text><line style="stroke:#181818;stroke-width:0.5;" x1="8" x2="107" y1="164" y2="164"/><line style="stroke:#181818;stroke-width:0.5;" x1="8" x2="107" y1="172" y2="172"/></g><!--MD5=[18d222b23d16918b2e30b2a06d1af479]
class createur--><g id="elem_createur"><rect codeLine="6" fill="#F1F1F1" height="48" id="createur" rx="2.5" ry="2.5" style="stroke:#181818;stroke-width:0.5;" width="89" x="73" y="7"/><ellipse cx="88" cy="23" fill="#ADD1B2" rx="11" ry="11" style="stroke:#181818;stroke-width:1.0;"/><path d="M91.6143,29.5 L83.8945,29.5 L83.8945,17.1069 L91.6143,17.1069 L91.6143,19.2651 L86.3433,19.2651 L86.3433,21.938 L91.1162,21.938 L91.1162,24.0962 L86.3433,24.0962 L86.3433,27.3418 L91.6143,27.3418 Z " fill="#000000"/><text fill="#000000" font-family="sans-serif" font-size="14" lengthAdjust="spacing" textLength="57" x="102" y="28.291">createur</text><line style="stroke:#181818;stroke-width:0.5;" x1="74" x2="161" y1="39" y2="39"/><line style="stroke:#181818;stroke-width:0.5;" x1="74" x2="161" y1="47" y2="47"/></g><!--MD5=[60838059855595057adeadf290302a4f]
class chaine--><g id="elem_chaine"><rect codeLine="10" fill="#F1F1F1" height="48" id="chaine" rx="2.5" ry="2.5" style="stroke:#181818;stroke-width:0.5;" width="77" x="80" y="257"/><ellipse cx="95" cy="273" fill="#ADD1B2" rx="11" ry="11" style="stroke:#181818;stroke-width:1.0;"/><path d="M98.6143,279.5 L90.8945,279.5 L90.8945,267.1069 L98.6143,267.1069 L98.6143,269.2651 L93.3433,269.2651 L93.3433,271.938 L98.1162,271.938 L98.1162,274.0962 L93.3433,274.0962 L93.3433,277.3418 L98.6143,277.3418 Z " fill="#000000"/><text fill="#000000" font-family="sans-serif" font-size="14" lengthAdjust="spacing" textLength="45" x="109" y="278.291">chaine</text><line style="stroke:#181818;stroke-width:0.5;" x1="81" x2="156" y1="289" y2="289"/><line style="stroke:#181818;stroke-width:0.5;" x1="81" x2="156" y1="297" y2="297"/></g><!--MD5=[7c1abedec862803cf2252998ebe41a9e]
link utilisateur to chaine--><g id="link_utilisateur_chaine"><path codeLine="14" d="M66.05,187.92 C70.02,200.38 75.25,214.69 81.5,227 C85.51,234.89 90.56,242.95 95.63,250.32 " fill="none" id="utilisateur-chaine" style="stroke:#181818;stroke-width:1.0;"/><line style="stroke:#181818;stroke-width:1.0;" x1="95.6493" x2="105.1633" y1="250.3423" y2="253.422"/><line style="stroke:#181818;stroke-width:1.0;" x1="95.6493" x2="95.3567" y1="250.3423" y2="260.338"/><line style="stroke:#181818;stroke-width:1.0;" x1="95.6493" x2="100.26" y1="250.3423" y2="256.88"/><ellipse cx="92.1913" cy="245.439" fill="none" rx="4" ry="4" style="stroke:#181818;stroke-width:1.0;"/><line style="stroke:#181818;stroke-width:1.0;" x1="65.9877" x2="57.8965" y1="187.6847" y2="181.8083"/><line style="stroke:#181818;stroke-width:1.0;" x1="65.9877" x2="69.3635" y1="187.6847" y2="178.2717"/><line style="stroke:#181818;stroke-width:1.0;" x1="65.9877" x2="63.63" y1="187.6847" y2="180.04"/><ellipse cx="67.756" cy="193.4182" fill="none" rx="4" ry="4" style="stroke:#181818;stroke-width:1.0;"/><polygon fill="#000000" points="88.6417,223.1733,87.423,213.7412,82.1116,216.259,88.6417,223.1733" style="stroke:#000000;stroke-width:1.0;"/><text fill="#000000" font-family="sans-serif" font-size="13" lengthAdjust="spacing" textLength="56" x="95.5" y="223.5684">donation</text></g><!--MD5=[b516e595a2c2bacda291a774d6b805af]
link createur to chaine--><g id="link_createur_chaine"><path codeLine="16" d="M142.22,62.1 C146.81,69.22 150.95,77.06 153.5,85 C172.78,145.11 175.82,166.9 156.5,227 C153.9,235.08 149.56,242.98 144.73,250.11 " fill="none" id="createur-chaine" style="stroke:#181818;stroke-width:1.0;"/><line style="stroke:#181818;stroke-width:1.0;" x1="144.4718" x2="144.6398" y1="250.4702" y2="260.4688"/><line style="stroke:#181818;stroke-width:1.0;" x1="144.4718" x2="134.9202" y1="250.4702" y2="253.4312"/><line style="stroke:#181818;stroke-width:1.0;" x1="144.4718" x2="139.78" y1="250.4702" y2="256.95"/><ellipse cx="147.9906" cy="245.6104" fill="none" rx="4" ry="4" style="stroke:#181818;stroke-width:1.0;"/><line style="stroke:#181818;stroke-width:1.0;" x1="136.4948" x2="143.0913" y1="60.8213" y2="56.2952"/><line style="stroke:#181818;stroke-width:1.0;" x1="138.1921" x2="144.7886" y1="63.295" y2="58.7689"/><line style="stroke:#181818;stroke-width:1.0;" x1="142.0562" x2="137.53" y1="61.8565" y2="55.26"/><polygon fill="#000000" points="174.5667,161.1548,177.3847,152.0713,171.5073,152.1498,174.5667,161.1548" style="stroke:#000000;stroke-width:1.0;"/><text fill="#000000" font-family="sans-serif" font-size="13" lengthAdjust="spacing" textLength="52" x="183.5" y="161.0684">possède</text></g><!--MD5=[0024bccd09e18c67e7ed6d8940f37a0a]
link createur to utilisateur--><g id="link_createur_utilisateur"><path codeLine="17" d="M102.66,62.43 C93.39,81.42 81.51,105.77 72.27,124.73 " fill="none" id="createur-utilisateur" style="stroke:#181818;stroke-width:1.0;"/><line style="stroke:#181818;stroke-width:1.0;" x1="74.0806" x2="66.8941" y1="130.1341" y2="126.6194"/><line style="stroke:#181818;stroke-width:1.0;" x1="75.3987" x2="68.2121" y1="127.4391" y2="123.9244"/><line style="stroke:#181818;stroke-width:1.0;" x1="72.2447" x2="68.73" y1="124.7834" y2="131.97"/><line style="stroke:#181818;stroke-width:1.0;" x1="101.3932" x2="106.21" y1="65.0293" y2="55.14"/><ellipse cx="101.3932" cy="65.0293" fill="none" rx="4" ry="4" style="stroke:#181818;stroke-width:1.0;"/><line style="stroke:#181818;stroke-width:1.0;" x1="100.8623" x2="108.0545" y1="56.9845" y2="60.4877"/><polygon fill="#000000" points="98.6921,89.1614,92.0851,96.0024,97.368,98.5794,98.6921,89.1614" style="stroke:#000000;stroke-width:1.0;"/><text fill="#000000" font-family="sans-serif" font-size="13" lengthAdjust="spacing" textLength="39" x="105.5" y="98.5684">est un</text></g><!--MD5=[62f44314ef0f72110b2e8ead66ed9ec7]
@startuml ERD_Conceptuel

entity utilisateur {

}

entity createur {
   
}

entity chaine {
  
}

utilisateur }o- -o{ chaine :> donation

createur ||- -o{ chaine :> possède
createur |o- -|| utilisateur :< est un

@enduml

PlantUML version 1.2022.7(Mon Aug 22 13:01:30 EDT 2022)
(GPL source distribution)
Java Runtime: OpenJDK Runtime Environment
JVM: OpenJDK 64-Bit Server VM
Default Encoding: UTF-8
Language: fr
Country: CA
--></g></svg>